# xmcd CD database file
#
# Track frame offsets:
#	150
#	47535
#	92111
#	125134
#	154131
#
# Disc length: 2310 seconds
#
# Revision: 0
# Processed by: cddbd v1.5.2PL0 Copyright (c) Steve Scherf et al.
# Submitted via: CDex 1.70beta2
#
DISCID=3c090405
DTITLE=Cobham, Billy - Inner conflicts
DYEAR=1978
DGENRE=Jazz
TTITLE0=Inner conflicts
TTITLE1=The muffin talks back
TTITLE2=Nickels and dime
TTITLE3=El barrio
TTITLE4=Arroyo
EXTD=YEAR: 1978
EXTT0=
EXTT1=
EXTT2=
EXTT3=
EXTT4=
PLAYORDER=
